<svg id="svg" version="1.1"
    xmlns="http://www.w3.org/2000/svg"
    xmlns:xlink="http://www.w3.org/1999/xlink" width="400" height="400" viewBox="0, 0, 400,400">
    <g id="svgg">
        <path id="path0" d="M75.977 27.082 C 70.081 29.872,68.615 34.212,70.333 43.779 C 73.869 63.471,81.117 77.804,95.545 93.637 C 105.244 104.279,109.161 111.491,111.885 123.717 C 114.131 133.802,115.845 134.961,128.516 134.961 C 138.600 134.961,139.399 134.754,142.701 131.293 C 145.879 127.961,146.439 125.820,145.520 120.519 C 142.164 101.161,135.197 87.113,121.877 72.852 C 111.876 62.144,106.210 51.947,104.077 40.820 C 101.406 26.892,100.855 26.424,86.926 26.263 C 78.168 26.161,77.878 26.183,75.977 27.082 M152.208 27.124 C 146.600 29.872,144.837 34.686,146.263 43.359 C 149.370 62.258,157.741 78.786,171.882 93.945 C 181.033 103.754,185.291 111.695,188.056 124.107 C 190.231 133.868,191.945 134.961,205.078 134.961 C 219.296 134.961,223.506 130.731,221.268 118.695 C 217.842 100.275,211.166 87.397,196.847 71.591 C 186.706 60.398,182.427 52.175,179.649 38.547 C 177.295 26.995,176.144 26.164,162.528 26.184 C 154.463 26.196,154.020 26.236,152.208 27.124 M44.727 156.675 C 36.126 157.920,28.380 165.077,26.586 173.438 C 25.772 177.231,26.216 317.246,27.055 321.289 C 32.536 347.715,52.284 367.462,78.711 372.945 C 82.724 373.778,224.442 374.225,230.664 373.425 C 261.494 369.459,284.700 344.482,286.942 312.854 L 287.207 309.106 296.045 308.865 C 308.327 308.531,315.525 307.329,324.323 304.144 C 343.750 297.112,362.345 278.520,369.375 259.099 C 385.787 213.761,357.082 165.031,309.325 157.155 C 304.814 156.411,49.748 155.949,44.727 156.675 M300.195 200.389 C 332.111 203.352,341.437 244.041,314.005 260.640 C 308.781 263.801,304.439 264.795,294.434 265.119 L 287.109 265.357 287.109 232.678 L 287.109 200.000 291.699 200.013 C 294.224 200.020,298.047 200.190,300.195 200.389 " stroke="none" fill="#545454" fill-rule="evenodd"></path>
        <path id="path1" d="" stroke="none" fill="#585454" fill-rule="evenodd"></path>
        <path id="path2" d="" stroke="none" fill="#585454" fill-rule="evenodd"></path>
        <path id="path3" d="" stroke="none" fill="#585454" fill-rule="evenodd"></path>
        <path id="path4" d="" stroke="none" fill="#585454" fill-rule="evenodd"></path>
    </g>
</svg>