<?xml version="1.0" standalone="no"?>
<!DOCTYPE svg PUBLIC "-//W3C//DTD SVG 20010904//EN"
 "http://www.w3.org/TR/2001/REC-SVG-20010904/DTD/svg10.dtd">
<svg version="1.0" xmlns="http://www.w3.org/2000/svg"
 width="1024.000000pt" height="1024.000000pt" viewBox="0 0 1024.000000 1024.000000"
 preserveAspectRatio="xMidYMid meet">
<metadata>
Created by potrace 1.11, written by Peter Selinger 2001-2013
</metadata>
<g transform="translate(0.000000,1024.000000) scale(0.100000,-0.100000)"
fill="#000000" stroke="none">
<path d="M1941 9538 c-93 -48 -161 -146 -161 -231 0 -31 34 -253 44 -286 3 -9
7 -27 10 -41 6 -41 26 -110 49 -180 11 -36 21 -67 22 -70 2 -26 106 -261 153
-349 78 -145 228 -359 322 -460 19 -21 60 -65 90 -97 140 -152 219 -263 293
-419 35 -74 84 -217 93 -270 3 -22 8 -43 10 -46 2 -3 6 -19 8 -35 18 -97 23
-111 57 -160 30 -44 72 -73 131 -93 21 -7 110 -12 225 -12 239 -1 278 8 356
84 82 80 103 170 73 307 -3 14 -11 52 -17 85 -18 98 -54 230 -94 335 -42 112
-163 360 -186 380 -3 3 -16 23 -29 45 -41 69 -135 197 -185 250 -16 17 -68 74
-115 126 -47 52 -91 100 -98 108 -33 35 -124 165 -162 232 -40 70 -118 245
-125 278 -2 9 -10 37 -19 63 -9 26 -25 98 -37 160 -28 159 -45 204 -93 253
-65 65 -103 73 -346 74 l-208 1 -61 -32z"/>
<path d="M3950 9563 c-103 -39 -155 -86 -192 -172 -22 -50 -25 -72 -22 -133 1
-40 5 -84 8 -98 3 -14 7 -41 10 -60 3 -19 8 -46 11 -60 3 -14 8 -36 11 -49 3
-14 7 -28 9 -31 2 -4 7 -22 10 -40 10 -55 85 -279 118 -350 54 -117 62 -134
102 -205 49 -88 163 -260 229 -345 44 -57 75 -91 196 -219 189 -200 314 -441
376 -726 41 -187 79 -241 192 -274 47 -13 396 -18 447 -5 121 29 214 136 220
255 5 98 -59 373 -132 567 -46 123 -143 321 -180 367 -4 6 -14 22 -22 37 -35
68 -182 248 -326 402 -87 92 -195 236 -240 322 -20 37 -39 72 -43 78 -39 62
-109 277 -138 426 -30 158 -48 206 -94 250 -60 58 -112 68 -338 69 -108 0
-204 -3 -212 -6z"/>
<path d="M1195 6229 c-157 -17 -255 -59 -347 -151 -90 -91 -133 -162 -162
-273 -14 -54 -16 -249 -15 -1830 0 -989 5 -1796 10 -1830 5 -33 11 -80 15
-105 3 -25 12 -72 21 -105 8 -33 16 -67 18 -75 8 -36 56 -162 90 -235 79 -172
182 -313 337 -467 93 -92 255 -228 272 -228 3 0 22 -11 42 -25 83 -56 312
-154 419 -180 92 -22 106 -24 155 -31 25 -3 68 -10 95 -15 58 -9 3717 -7 3755
3 14 4 45 9 70 12 25 4 63 11 85 17 22 5 51 12 65 15 93 19 303 108 420 179
60 36 192 133 215 159 6 6 32 31 60 56 81 73 255 274 255 295 0 3 16 28 35 55
19 27 35 54 35 59 0 5 3 11 8 13 9 4 81 169 111 253 12 34 29 92 37 130 8 39
17 79 19 90 12 52 32 257 29 300 l-1 22 171 1 c157 0 304 7 352 16 10 2 44 7
74 11 76 9 239 51 335 85 261 92 504 249 719 464 107 108 296 344 296 372 0 7
4 14 8 16 10 3 20 22 87 158 80 162 145 372 160 520 4 36 10 86 15 113 7 49 5
387 -3 422 -3 11 -8 47 -11 80 -9 75 -49 238 -82 330 -14 39 -28 78 -31 88
-19 63 -202 383 -232 407 -3 3 -19 23 -36 45 -84 113 -254 281 -380 376 -95
72 -243 166 -296 189 -13 5 -31 14 -39 19 -104 59 -367 141 -505 157 -33 3
-69 8 -80 11 -11 2 -78 6 -148 9 -183 8 -6450 10 -6522 3z m6585 -1123 c306
-54 575 -305 649 -608 24 -97 33 -239 20 -319 -5 -30 -11 -67 -13 -84 -12 -74
-61 -190 -115 -269 -128 -190 -329 -322 -547 -360 -107 -19 -424 -22 -425 -4
-4 38 -5 1644 -1 1652 5 9 373 2 432 -8z"/>
</g>
</svg>
